<svg xmlns="http://www.w3.org/2000/svg" width="28" height="26" fill="none" viewBox="0 0 28 26">
  <path fill="#fff" d="M3.333 26H16.16a5.335 5.335 0 0 0 4.05-1.863l6.802-7.936a1.333 1.333 0 0 0-.59-2.133l-2.623-.875a4.053 4.053 0 0 0-3.764.671l-4.247 3.396-.823-1.647a5.307 5.307 0 0 0-4.77-2.946H3.333a2.67 2.67 0 0 0-2.666 2.666v8A2.67 2.67 0 0 0 3.333 26Zm0-10.667h6.862a2.65 2.65 0 0 1 2.385 1.474L13.176 18H7.333v2.667h8.019c.205-.003.407-.054.59-.147l.003-.001.006-.003h.004l.002-.001h.006l.001-.002c.012.004.004-.001.004-.001.013 0 .003-.001.003-.001h.001l.003-.002.004-.001.002-.001.003-.002.004-.001.003-.001c.004 0 .001-.002.002-.002l.004-.002.003-.002.003-.001.004-.001.002-.002h.002l.002-.001.004-.001.003-.002c.012-.001.004-.001.004-.001l.003-.001c.05-.032.1-.066.146-.104l5.528-4.423a1.35 1.35 0 0 1 1.254-.223l.742.248-5.51 6.431a2.709 2.709 0 0 1-2.027.917H3.333v-8Zm16-14.666h-.022c-.218.002-1.342.052-2.644.94C15.399.743 14.3.673 14.043.668l-.04-.001h-.006a3.97 3.97 0 0 0-2.825 1.17A3.98 3.98 0 0 0 10 4.667a3.96 3.96 0 0 0 1.148 2.805l4.552 4.781a1.343 1.343 0 0 0 1.933-.001l4.528-4.757a3.968 3.968 0 0 0 1.172-2.828c0-1.07-.417-2.074-1.17-2.828A3.973 3.973 0 0 0 19.336.667h-.003Zm1.334 4c0 .356-.139.69-.415.966L16.667 9.4l-3.61-3.79a1.324 1.324 0 0 1-.39-.943c0-.356.138-.691.392-.944.241-.245.57-.385.913-.39.033.002.67.043 1.423.647.107.087.217.186.329.296l.943.943.942-.943c.112-.11.222-.209.33-.296.705-.567 1.301-.637 1.402-.645a1.333 1.333 0 0 1 1.326 1.332Z"/>
</svg>
