<svg xmlns="http://www.w3.org/2000/svg" width="512" height="512" fill="none" viewBox="0 0 512 512">
  <g clip-path="url(#a)">
    <path fill="#fff" d="M256 0a256 256 0 1 0 256 256A256.275 256.275 0 0 0 256 0Zm0 448a192 192 0 1 1 192-192 192.232 192.232 0 0 1-192 192Z"/>
    <path fill="#fff" d="M246.293 203.627h-6.4a33.643 33.643 0 0 0-34.24 29.717 32 32 0 0 0 29.014 34.005v99.2a32.001 32.001 0 1 0 64 0V256a52.375 52.375 0 0 0-52.374-52.373Zm6.08-23.019A36.608 36.608 0 1 0 215.765 144a36.6 36.6 0 0 0 10.716 25.892 36.59 36.59 0 0 0 25.892 10.716Z"/>
  </g>
  <defs>
    <clipPath id="a">
      <path fill="#fff" d="M0 0h512v512H0z"/>
    </clipPath>
  </defs>
</svg>
